<?xml version="1.0" encoding="UTF-8"?>
<svg width="20px" height="20px" viewBox="0 0 20 20" version="1.1" xmlns="http://www.w3.org/2000/svg" xmlns:xlink="http://www.w3.org/1999/xlink">
    <!-- Generator: Sketch 43 (38999) - http://www.bohemiancoding.com/sketch -->
    <title>关闭点亮状态</title>
    <desc>Created with Sketch.</desc>
    <defs></defs>
    <g id="-" stroke="none" stroke-width="1" fill="none" fill-rule="evenodd">
        <g id="9机票下单_-个人付款" transform="translate(-908.000000, -1057.000000)" fill-rule="nonzero" fill="#10AF7E">
            <g id="关闭-4" transform="translate(908.000000, 1057.000000)">
                <path d="M17.0631413,2.93156666 C13.1657994,-0.966495305 6.82398842,-0.966495305 2.92664654,2.93156666 C-0.971373071,6.82882383 -0.971373071,13.1706771 2.92664654,17.0679343 C6.82398842,20.9660386 13.1657994,20.9660386 17.0631413,17.0679343 C20.9611609,13.1706771 20.9611609,6.82882383 17.0631413,2.93156666 Z M16.0489259,16.0537613 C12.7104953,19.3921072 7.27853005,19.3914295 3.94086188,16.0537613 C0.602515988,12.7153307 0.602515988,7.2841279 3.94086188,3.94569729 C7.27853005,0.608029121 12.7104953,0.607351396 16.0489259,3.94569729 C19.3865941,7.28336546 19.3865941,12.7161779 16.0489259,16.0537613 Z" id="Shape"></path>
                <path d="M11.1223317,9.96613957 L14.3204732,6.76299979 C14.5998653,6.48318412 14.5998653,6.029532 14.3204732,5.74971632 C14.0410811,5.46990064 13.5881491,5.46990064 13.308757,5.74971632 L10.1106578,8.95281373 L6.78692534,5.62399835 C6.50863454,5.34532633 6.05743917,5.34532633 5.77914838,5.62399835 C5.50089994,5.90275508 5.50089994,6.35462817 5.77914838,6.6333849 L9.10279611,9.96224265 L5.61967123,13.4508317 C5.34023677,13.7306474 5.34023677,14.1843418 5.61967123,14.4641575 C5.89906333,14.7439732 6.35199537,14.7439732 6.63134511,14.4641575 L10.1145123,10.9755261 L13.4382024,14.3043839 C13.7164932,14.5830559 14.1676886,14.5830559 14.4459794,14.3043839 C14.7242702,14.0256271 14.7242702,13.573754 14.4459794,13.2950397 L11.1223317,9.96613957 Z" id="Shape"></path>
            </g>
        </g>
    </g>
</svg>