<?xml version="1.0" encoding="UTF-8"?>
<svg width="15px" height="15px" viewBox="0 0 15 15" version="1.1" xmlns="http://www.w3.org/2000/svg" xmlns:xlink="http://www.w3.org/1999/xlink">
    <!-- Generator: Sketch 43 (38999) - http://www.bohemiancoding.com/sketch -->
    <title>感叹ehhh</title>
    <desc>Created with Sketch.</desc>
    <defs></defs>
    <g id="-" stroke="none" stroke-width="1" fill="none" fill-rule="evenodd">
        <g id="17机票下单_-月结支付页面" transform="translate(-203.000000, -108.000000)" fill="#FF5B45">
            <g id="Group" transform="translate(203.000000, 108.000000)">
                <path d="M7.49789999,0 C3.35692073,0 0,3.35223229 0,7.48742807 C0,11.6226028 3.35692073,14.9748351 7.49789999,14.9748351 C11.6388582,14.9748351 14.9958,11.6226028 14.9958,7.48742807 C14.9958,3.35223229 11.6388793,0 7.49789999,0 L7.49789999,0 Z M8.40366301,12.0694468 L6.59211596,12.0694468 L6.59211596,10.2604089 L8.40364199,10.2604089 L8.40364199,12.0694468 L8.40366301,12.0694468 L8.40366301,12.0694468 Z M8.40366301,8.45143388 L6.59211596,8.45143388 L6.59211596,3.02436201 L8.40364199,3.02436201 L8.40364199,8.45143388 L8.40366301,8.45143388 L8.40366301,8.45143388 Z" id="感叹"></path>
            </g>
        </g>
    </g>
</svg>